<svg width="520" height="41" viewBox="0 0 520 41" fill="none" xmlns="http://www.w3.org/2000/svg">
<path d="M21 24.6937C18.6987 24.6937 16.8333 22.8283 16.8333 20.527C16.8333 18.2258 18.6987 16.3604 21 16.3604C23.3012 16.3604 25.1667 18.2258 25.1667 20.527C25.1667 22.8283 23.3012 24.6937 21 24.6937Z" fill="#E11D48"/>
<path d="M36 24.6937C33.6987 24.6937 31.8333 22.8283 31.8333 20.527C31.8333 18.2258 33.6987 16.3604 36 16.3604C38.3012 16.3604 40.1667 18.2258 40.1667 20.527C40.1667 22.8283 38.3012 24.6937 36 24.6937Z" fill="#FBBF24"/>
<path d="M51 24.6937C48.6987 24.6937 46.8333 22.8283 46.8333 20.527C46.8333 18.2258 48.6987 16.3604 51 16.3604C53.3012 16.3604 55.1667 18.2258 55.1667 20.527C55.1667 22.8283 53.3012 24.6937 51 24.6937Z" fill="#22C55E"/>
</svg>
