<svg width="65" height="65" viewBox="0 0 65 65" fill="none" xmlns="http://www.w3.org/2000/svg">
<path opacity="0.5" d="M46.9289 2.27467C53.2286 -4.02498 64 0.4367 64 9.34575L64 28.2036C64 33.7265 59.5228 38.2036 54 38.2036L35.1421 38.2036C26.2331 38.2036 21.7714 27.4322 28.0711 21.1325L46.9289 2.27467Z" fill="#15803D"/>
<path d="M54 53.5368L11.3334 40.2034M54 53.5368H11.3334V40.2034L54 53.5368ZM54 53.5368V32.2034C54 20.4214 44.4488 10.8701 32.6667 10.8701C30.5486 10.8701 28.5027 11.1788 26.5715 11.7536C17.7593 14.3762 11.3334 22.5394 11.3334 32.2034V40.2034L54 53.5368Z" stroke="#78350F" stroke-width="1.5" stroke-linecap="round" stroke-linejoin="round"/>
<path d="M43.3334 24.2036V26.8703" stroke="#78350F" stroke-width="1.5" stroke-linecap="round"/>
<path d="M32.6667 21.5371V24.2038" stroke="#78350F" stroke-width="1.5" stroke-linecap="round"/>
<path d="M22 18.8701V21.5368" stroke="#78350F" stroke-width="1.5" stroke-linecap="round"/>
</svg>
